<svg xmlns="http://www.w3.org/2000/svg" width="1024" height="1024" viewBox="0 0 1024 1024" version="1.1"><path d="M 499.543 408.062 C 481.417 459.206, 466.271 501.562, 465.885 502.186 C 465.440 502.906, 445.823 505.071, 412.342 508.098 C 383.279 510.724, 314.067 516.973, 258.538 521.982 C 203.008 526.992, 157.445 531.221, 157.286 531.380 C 157.127 531.539, 234.029 531.977, 328.179 532.352 C 444.077 532.814, 499.564 532.705, 499.991 532.015 C 500.337 531.455, 507.783 501.489, 516.538 465.424 C 526.494 424.409, 532.721 400.535, 533.166 401.676 C 533.558 402.679, 547.056 474.938, 563.162 562.250 C 579.268 649.563, 592.700 721, 593.011 721 C 593.322 721, 603.642 670.262, 615.944 608.250 C 628.247 546.237, 638.598 494.937, 638.946 494.249 C 639.295 493.561, 642.068 501.661, 645.108 512.249 L 650.636 531.500 720.491 531.757 C 758.912 531.898, 790.156 531.831, 789.924 531.608 C 789.691 531.385, 761.825 524.808, 728 516.993 C 694.175 509.177, 666.266 502.644, 665.981 502.475 C 665.695 502.305, 658.720 486.830, 650.481 468.084 C 642.241 449.339, 635.262 434.001, 634.971 434.001 C 634.680 434, 624.780 476.515, 612.971 528.478 C 599.902 585.987, 591.216 622.280, 590.773 621.228 C 590.374 620.278, 577.410 551.775, 561.966 469 C 546.522 386.225, 533.574 317.729, 533.193 316.786 C 532.746 315.682, 520.781 348.138, 499.543 408.062" stroke="none" fill="#fbf8f8" fill-rule="evenodd"/><path d="M 402 259.614 L 402 388.228 270.750 387.864 L 139.500 387.500 139.246 515.586 L 138.992 643.672 204.246 644.335 C 240.136 644.700, 299.087 644.999, 335.250 644.999 L 401 645 401 772.500 L 401 900 468.750 900.001 C 506.012 900.001, 563.837 900.300, 597.250 900.665 L 658 901.328 658 773.164 L 658 645 783 645 L 908 645 908 516.500 L 908 388 783.500 388 L 659 388 659 259.500 L 659 131 530.500 131 L 402 131 402 259.614 M 499.543 408.062 C 481.417 459.206, 466.271 501.562, 465.885 502.186 C 465.440 502.906, 445.823 505.071, 412.342 508.098 C 383.279 510.724, 314.067 516.973, 258.538 521.982 C 203.008 526.992, 157.445 531.221, 157.286 531.380 C 157.127 531.539, 234.029 531.977, 328.179 532.352 C 444.077 532.814, 499.564 532.705, 499.991 532.015 C 500.337 531.455, 507.783 501.489, 516.538 465.424 C 526.494 424.409, 532.721 400.535, 533.166 401.676 C 533.558 402.679, 547.056 474.938, 563.162 562.250 C 579.268 649.563, 592.700 721, 593.011 721 C 593.322 721, 603.642 670.262, 615.944 608.250 C 628.247 546.237, 638.598 494.937, 638.946 494.249 C 639.295 493.561, 642.068 501.661, 645.108 512.249 L 650.636 531.500 720.491 531.757 C 758.912 531.898, 790.156 531.831, 789.924 531.608 C 789.691 531.385, 761.825 524.808, 728 516.993 C 694.175 509.177, 666.266 502.644, 665.981 502.475 C 665.695 502.305, 658.720 486.830, 650.481 468.084 C 642.241 449.339, 635.262 434.001, 634.971 434.001 C 634.680 434, 624.780 476.515, 612.971 528.478 C 599.902 585.987, 591.216 622.280, 590.773 621.228 C 590.374 620.278, 577.410 551.775, 561.966 469 C 546.522 386.225, 533.574 317.729, 533.193 316.786 C 532.746 315.682, 520.781 348.138, 499.543 408.062" stroke="none" fill="#950404" fill-rule="evenodd"/></svg>